<?xml version="1.0" standalone="no"?>
<!DOCTYPE svg PUBLIC "-//W3C//DTD SVG 20010904//EN"
 "http://www.w3.org/TR/2001/REC-SVG-20010904/DTD/svg10.dtd">
<svg version="1.0" xmlns="http://www.w3.org/2000/svg"
 width="195.000000pt" height="171.000000pt" viewBox="0 0 195.000000 171.000000"
 preserveAspectRatio="xMidYMid meet">

<g transform="translate(0.000000,171.000000) scale(0.100000,-0.100000)"
fill="#000000" stroke="none">
<path d="M928 1540 c-87 -77 -159 -140 -161 -140 -2 0 -43 50 -91 110 -48 61
-91 110 -96 110 -4 0 -13 -6 -19 -14 -9 -10 8 -37 80 -127 l91 -114 -249 -5
c-215 -4 -253 -7 -276 -23 -58 -38 -58 -31 -55 -568 l3 -491 37 -34 38 -34
622 -2 c743 -3 824 -1 859 19 60 36 59 26 59 555 0 461 -1 484 -20 515 -35 59
-27 58 -504 63 l-440 5 140 124 c76 69 148 132 158 142 16 15 17 21 6 33 -7 9
-15 16 -19 16 -3 0 -77 -63 -163 -140z m372 -757 l0 -373 -475 0 -475 0 0 368
c0 203 3 372 8 377 4 4 217 6 474 4 l468 -4 0 -372z m285 353 c68 -29 95 -118
55 -184 -44 -71 -134 -80 -197 -17 -28 28 -33 40 -33 82 0 55 17 85 64 114 37
23 65 24 111 5z m53 -333 l-3 -28 -100 0 -100 0 -3 28 -3 27 106 0 106 0 -3
-27z m2 -118 l0 -25 -105 0 -105 0 0 25 0 25 105 0 105 0 0 -25z m0 -120 l0
-25 -105 0 -105 0 0 25 0 25 105 0 105 0 0 -25z m0 -120 l0 -25 -105 0 -105 0
0 25 0 25 105 0 105 0 0 -25z"/>
<path d="M1482 1067 c-28 -30 -28 -68 1 -95 33 -31 80 -29 106 4 12 15 21 34
21 44 0 10 -9 29 -21 44 -27 34 -77 36 -107 3z"/>
</g>
</svg>
